<svg viewBox="0 0 1200 420" xmlns="http://www.w3.org/2000/svg">
  <defs>
    <style>
      .hex { stroke: #0f172a; stroke-width: 2; }
      .txt {
        fill: #f8fafc;
        font-family: Segoe UI, Helvetica, Arial, sans-serif;
        font-size: 16;
        font-weight: 600;
      }
    </style>
  </defs>

  <!-- Background -->
  <rect width="1200" height="420" fill="#020617"/>

  <!-- ================= ROW 1 ================= -->
  <polygon class="hex" fill="#facc15" points="300,90 350,60 400,90 400,150 350,180 300,150"/>
  <text x="350" y="125" text-anchor="middle" class="txt">JavaScript</text>

  <polygon class="hex" fill="#60a5fa" points="420,90 470,60 520,90 520,150 470,180 420,150"/>
  <text x="470" y="125" text-anchor="middle" class="txt">Python</text>

  <polygon class="hex" fill="#22c55e" points="540,90 590,60 640,90 640,150 590,180 540,150"/>
  <text x="590" y="125" text-anchor="middle" class="txt">C++</text>

  <polygon class="hex" fill="#38bdf8" points="660,90 710,60 760,90 760,150 710,180 660,150"/>
  <text x="710" y="125" text-anchor="middle" class="txt">React</text>

  <polygon class="hex" fill="#6366f1" points="780,90 830,60 880,90 880,150 830,180 780,150"/>
  <text x="830" y="125" text-anchor="middle" class="txt">Next.js</text>

  <!-- ================= ROW 2 (OFFSET) ================= -->
  <polygon class="hex" fill="#f97316" points="360,190 410,160 460,190 460,250 410,280 360,250"/>
  <text x="410" y="225" text-anchor="middle" class="txt">Flask</text>

  <polygon class="hex" fill="#16a34a" points="480,190 530,160 580,190 580,250 530,280 480,250"/>
  <text x="530" y="225" text-anchor="middle" class="txt">MERN</text>

  <polygon class="hex" fill="#22c55e" points="600,190 650,160 700,190 700,250 650,280 600,250"/>
  <text x="650" y="225" text-anchor="middle" class="txt">MongoDB</text>

  <polygon class="hex" fill="#3b82f6" points="720,190 770,160 820,190 820,250 770,280 720,250"/>
  <text x="770" y="225" text-anchor="middle" class="txt">MySQL</text>

  <!-- ================= ROW 3 ================= -->
  <polygon class="hex" fill="#0ea5e9" points="300,290 350,260 400,290 400,350 350,380 300,350"/>
  <text x="350" y="325" text-anchor="middle" class="txt">GCP</text>

  <polygon class="hex" fill="#f59e0b" points="420,290 470,260 520,290 520,350 470,380 420,350"/>
  <text x="470" y="325" text-anchor="middle" class="txt">AWS</text>

  <polygon class="hex" fill="#64748b" points="540,290 590,260 640,290 640,350 590,380 540,350"/>
  <text x="590" y="325" text-anchor="middle" class="txt">MS Azur</text>

  <polygon class="hex" fill="#a855f7" points="660,290 710,260 760,290 760,350 710,380 660,350"/>
  <text x="710" y="325" text-anchor="middle" class="txt">CI/CD</text>

  <polygon class="hex" fill="#94a3b8" points="780,290 830,260 880,290 880,350 830,380 780,350"/>
  <text x="830" y="325" text-anchor="middle" class="txt">Docker</text>

</svg>
